<svg width="28" height="28" viewBox="0 0 28 28" fill="none" xmlns="http://www.w3.org/2000/svg">
<g clip-path="url(#clip0_48_232)">
<path fill-rule="evenodd" clip-rule="evenodd" d="M14.0004 0.583374C10.6768 0.585098 7.46225 1.76224 4.93145 3.90432C2.40064 6.04639 0.718656 9.01372 0.186237 12.2757C-0.346182 15.5377 0.305683 18.8816 2.02528 21.7096C3.74489 24.5375 6.42008 26.6651 9.57252 27.7118C10.268 27.8409 10.53 27.4099 10.53 27.0434C10.53 26.6769 10.5161 25.6142 10.5114 24.4525C6.61673 25.2938 5.79375 22.8089 5.79375 22.8089C5.15855 21.1954 4.24051 20.7712 4.24051 20.7712C2.9701 19.9092 4.33557 19.9253 4.33557 19.9253C5.74275 20.0244 6.48228 21.3614 6.48228 21.3614C7.72951 23.4889 9.75798 22.8735 10.5555 22.5139C10.6806 21.6126 11.0446 20.9995 11.4457 20.6514C8.33457 20.301 5.06581 19.107 5.06581 13.773C5.04653 12.3897 5.56279 11.0519 6.50778 10.0365C6.36405 9.68613 5.88416 8.27081 6.64455 6.34838C6.64455 6.34838 7.81992 5.97495 10.4952 7.77522C12.7899 7.15127 15.2109 7.15127 17.5056 7.77522C20.1786 5.97495 21.3516 6.34838 21.3516 6.34838C22.1143 8.2662 21.6345 9.68152 21.4907 10.0365C22.4387 11.0521 22.956 12.3922 22.935 13.7776C22.935 19.1231 19.6593 20.301 16.5435 20.6445C17.0443 21.0778 17.4917 21.9238 17.4917 23.2239C17.4917 25.0864 17.4755 26.5847 17.4755 27.0434C17.4755 27.4145 17.7282 27.8478 18.4376 27.7118C21.5904 26.665 24.2658 24.537 25.9854 21.7086C27.705 18.8802 28.3565 15.5357 27.8235 12.2734C27.2904 9.01114 25.6076 6.04379 23.076 3.90208C20.5443 1.76037 17.329 0.584005 14.005 0.583374H14.0004Z" fill="#F8F9FA"/>
<path d="M9.3658 23.3045C9.3658 23.4174 9.23599 23.5142 9.06907 23.5165C8.90216 23.5188 8.76538 23.4266 8.76538 23.3137C8.76538 23.2007 8.8952 23.1039 9.06211 23.1016C9.22903 23.0993 9.3658 23.1892 9.3658 23.3045Z" fill="#FF0000"/>
<path d="M10.4321 23.127C10.453 23.24 10.3371 23.3575 10.1702 23.3852C10.0033 23.4129 9.8572 23.346 9.83633 23.2354C9.81547 23.1247 9.93602 23.0049 10.0983 22.9749C10.2606 22.9449 10.4113 23.0141 10.4321 23.127Z" fill="#FF0000"/>
<path d="M8.22062 23.2261C8.18584 23.3344 8.0282 23.3828 7.87056 23.3367C7.71292 23.2906 7.60859 23.1615 7.63873 23.0509C7.66887 22.9403 7.82883 22.8895 7.98879 22.9403C8.14875 22.991 8.25076 23.1131 8.22062 23.2261Z" fill="#FF0000"/>
<path d="M7.17031 22.7744C7.0938 22.8597 6.93848 22.8366 6.81098 22.7214C6.68347 22.6061 6.65333 22.4494 6.72983 22.3664C6.80633 22.2834 6.96166 22.3064 7.0938 22.4194C7.22594 22.5323 7.25144 22.6914 7.17031 22.7744Z" fill="#FF0000"/>
<path d="M6.42152 21.9999C6.33574 22.0598 6.18968 21.9999 6.10854 21.88C6.08611 21.8585 6.06827 21.8327 6.05608 21.8042C6.04389 21.7757 6.0376 21.745 6.0376 21.714C6.0376 21.6831 6.04389 21.6524 6.05608 21.6239C6.06827 21.5954 6.08611 21.5696 6.10854 21.5481C6.19432 21.4904 6.34038 21.5481 6.42152 21.6656C6.50266 21.7832 6.50498 21.9399 6.42152 21.9999Z" fill="#FF0000"/>
<path d="M5.86985 21.2C5.82184 21.224 5.76691 21.2308 5.71447 21.219C5.66203 21.2072 5.61534 21.1777 5.58239 21.1354C5.49197 21.0386 5.47342 20.9049 5.54297 20.845C5.61251 20.7851 5.73771 20.8127 5.82812 20.9096C5.91853 21.0064 5.9394 21.1401 5.86985 21.2Z" fill="#FF0000"/>
<path d="M5.30182 20.5707C5.27168 20.6399 5.16041 20.6606 5.07 20.6122C4.97958 20.5638 4.91236 20.4739 4.94481 20.4025C4.97727 20.331 5.08623 20.3126 5.17664 20.361C5.26705 20.4094 5.3366 20.5016 5.30182 20.5707Z" fill="#FF0000"/>
</g>
<defs>
<clipPath id="clip0_48_232">
<rect width="28" height="28" fill="white"/>
</clipPath>
</defs>
</svg>
